<svg width="16" height="17" viewBox="0 0 16 17" fill="none" xmlns="http://www.w3.org/2000/svg">
<path d="M11.3333 6.61336C11.2084 6.48919 11.0395 6.41949 10.8633 6.41949C10.6872 6.41949 10.5182 6.48919 10.3933 6.61336L8.00001 8.97336L5.64001 6.61336C5.5151 6.48919 5.34613 6.41949 5.17001 6.41949C4.99388 6.41949 4.82491 6.48919 4.70001 6.61336C4.63752 6.67533 4.58792 6.74907 4.55408 6.83031C4.52023 6.91154 4.50281 6.99868 4.50281 7.08669C4.50281 7.1747 4.52023 7.26183 4.55408 7.34307C4.58792 7.42431 4.63752 7.49805 4.70001 7.56002L7.52667 10.3867C7.58865 10.4492 7.66238 10.4988 7.74362 10.5326C7.82486 10.5665 7.912 10.5839 8.00001 10.5839C8.08801 10.5839 8.17515 10.5665 8.25639 10.5326C8.33763 10.4988 8.41136 10.4492 8.47334 10.3867L11.3333 7.56002C11.3958 7.49805 11.4454 7.42431 11.4793 7.34307C11.5131 7.26183 11.5305 7.1747 11.5305 7.08669C11.5305 6.99868 11.5131 6.91154 11.4793 6.83031C11.4454 6.74907 11.3958 6.67533 11.3333 6.61336Z" fill="#989898"/>
</svg>
