<svg width="15" height="15" viewBox="0 0 15 15" fill="none" xmlns="http://www.w3.org/2000/svg">
<path d="M10 12.5H5C4.50272 12.5 4.02581 12.3025 3.67417 11.9508C3.32254 11.5992 3.125 11.1223 3.125 10.625V4.375C3.125 4.20924 3.05915 4.05027 2.94194 3.93306C2.82473 3.81585 2.66576 3.75 2.5 3.75C2.33424 3.75 2.17527 3.81585 2.05806 3.93306C1.94085 4.05027 1.875 4.20924 1.875 4.375V10.625C1.875 11.4538 2.20424 12.2487 2.79029 12.8347C3.37634 13.4208 4.1712 13.75 5 13.75H10C10.1658 13.75 10.3247 13.6842 10.4419 13.5669C10.5592 13.4497 10.625 13.2908 10.625 13.125C10.625 12.9592 10.5592 12.8003 10.4419 12.6831C10.3247 12.5658 10.1658 12.5 10 12.5ZM13.125 5.5875C13.1185 5.53008 13.1059 5.47352 13.0875 5.41875V5.3625C13.0574 5.29824 13.0174 5.23917 12.9688 5.1875L9.21875 1.4375C9.16708 1.38889 9.10801 1.3488 9.04375 1.31875H8.9875L8.7875 1.25H6.25C5.75272 1.25 5.27581 1.44754 4.92417 1.79917C4.57254 2.15081 4.375 2.62772 4.375 3.125V9.375C4.375 9.87228 4.57254 10.3492 4.92417 10.7008C5.27581 11.0525 5.75272 11.25 6.25 11.25H11.25C11.7473 11.25 12.2242 11.0525 12.5758 10.7008C12.9275 10.3492 13.125 9.87228 13.125 9.375V5.625C13.125 5.625 13.125 5.625 13.125 5.5875ZM9.375 3.38125L10.9937 5H10C9.83424 5 9.67527 4.93415 9.55806 4.81694C9.44085 4.69973 9.375 4.54076 9.375 4.375V3.38125ZM11.875 9.375C11.875 9.54076 11.8092 9.69973 11.6919 9.81694C11.5747 9.93415 11.4158 10 11.25 10H6.25C6.08424 10 5.92527 9.93415 5.80806 9.81694C5.69085 9.69973 5.625 9.54076 5.625 9.375V3.125C5.625 2.95924 5.69085 2.80027 5.80806 2.68306C5.92527 2.56585 6.08424 2.5 6.25 2.5H8.125V4.375C8.125 4.87228 8.32254 5.34919 8.67417 5.70083C9.02581 6.05246 9.50272 6.25 10 6.25H11.875V9.375Z" fill="black"/>
</svg>
