<svg width="16" height="17" viewBox="0 0 16 17" fill="none" xmlns="http://www.w3.org/2000/svg">
<path d="M13.9467 8.91333C13.915 8.8315 13.8674 8.75674 13.8067 8.69333L11.8067 6.69333C11.6812 6.5678 11.5109 6.49727 11.3334 6.49727C11.1558 6.49727 10.9856 6.5678 10.86 6.69333C10.7345 6.81887 10.664 6.98913 10.664 7.16667C10.664 7.3442 10.7345 7.51446 10.86 7.64L11.7267 8.5H5.33337C5.15656 8.5 4.98699 8.42976 4.86197 8.30474C4.73695 8.17971 4.66671 8.01014 4.66671 7.83333V5.16667C4.66671 4.98986 4.59647 4.82029 4.47145 4.69526C4.34642 4.57024 4.17685 4.5 4.00004 4.5C3.82323 4.5 3.65366 4.57024 3.52864 4.69526C3.40361 4.82029 3.33337 4.98986 3.33337 5.16667V7.83333C3.33337 8.36377 3.54409 8.87247 3.91916 9.24755C4.29423 9.62262 4.80294 9.83333 5.33337 9.83333H11.7267L10.86 10.6933C10.7976 10.7553 10.748 10.829 10.7141 10.9103C10.6803 10.9915 10.6628 11.0787 10.6628 11.1667C10.6628 11.2547 10.6803 11.3418 10.7141 11.4231C10.748 11.5043 10.7976 11.578 10.86 11.64C10.922 11.7025 10.9958 11.7521 11.077 11.7859C11.1582 11.8198 11.2454 11.8372 11.3334 11.8372C11.4214 11.8372 11.5085 11.8198 11.5898 11.7859C11.671 11.7521 11.7447 11.7025 11.8067 11.64L13.8067 9.64C13.8674 9.5766 13.915 9.50183 13.9467 9.42C14.0134 9.25769 14.0134 9.07564 13.9467 8.91333Z" fill="white"/>
</svg>
