<svg width="24" height="25" viewBox="0 0 24 25" fill="none" xmlns="http://www.w3.org/2000/svg">
<path d="M22.5676 2.07425C22.5225 1.90297 22.4327 1.74674 22.3074 1.62149C22.1822 1.49625 22.026 1.40648 21.8547 1.36136C19.8033 0.828552 17.6432 0.885939 15.623 1.52692C13.6028 2.16789 11.8047 3.36639 10.4357 4.98442L9.32081 6.30825L6.71601 5.67977C6.08275 5.459 5.39099 5.47483 4.76849 5.72432C4.14599 5.97382 3.63479 6.44013 3.32929 7.03715L1.1291 10.9371C1.05201 11.0737 1.00814 11.2265 1.00103 11.3832C0.993919 11.5399 1.02377 11.696 1.08818 11.8391C1.15259 11.9821 1.24974 12.1079 1.37178 12.2065C1.49382 12.305 1.63734 12.3734 1.79072 12.4063L4.86347 13.0649C4.60318 13.8573 4.41732 14.6722 4.3083 15.499C4.28854 15.6509 4.30393 15.8054 4.35328 15.9504C4.40263 16.0954 4.48464 16.2271 4.59296 16.3355L7.69306 19.4356C7.78588 19.5284 7.89609 19.6021 8.0174 19.6524C8.13872 19.7027 8.26874 19.7286 8.40006 19.7286C8.42887 19.7286 8.45768 19.7271 8.48698 19.7246C9.33232 19.6486 10.1674 19.4844 10.9786 19.2346L11.6222 22.2378C11.6551 22.3912 11.7236 22.5346 11.8222 22.6566C11.9207 22.7786 12.0466 22.8757 12.1896 22.9401C12.3326 23.0045 12.4887 23.0344 12.6454 23.0273C12.802 23.0203 12.9549 22.9765 13.0915 22.8994L16.9967 20.6968C17.5464 20.3628 17.9757 19.8629 18.2229 19.2691C18.47 18.6753 18.5221 18.0184 18.3717 17.3931L17.703 14.6341L18.9401 13.4966C20.5642 12.1315 21.7673 10.3333 22.4095 8.31121C23.0516 6.28913 23.1065 4.12627 22.5676 2.07425ZM3.53877 10.7354L5.09492 7.97563C5.19158 7.78828 5.35625 7.645 5.55517 7.57518C5.7541 7.50536 5.97219 7.51429 6.16474 7.60014L7.88215 8.01634L7.23215 8.78813C6.61591 9.52671 6.08292 10.3309 5.64283 11.1863L3.53877 10.7354ZM16.009 18.9576L13.2932 20.4893L12.8637 18.4846C13.7343 18.0504 14.5454 17.506 15.2771 16.8647L16.0206 16.1811L16.424 17.8457C16.4763 18.0512 16.4646 18.2679 16.3905 18.4666C16.3163 18.6653 16.1832 18.8366 16.009 18.9576ZM17.6232 11.9923L13.9387 15.3785C12.4802 16.6398 10.6813 17.4415 8.76826 17.6827L6.36396 15.2784C6.68688 13.3604 7.51567 11.5632 8.76484 10.0724L10.4432 8.0797C10.4711 8.05045 10.4972 8.01947 10.5213 7.98693L11.9563 6.28325C13.0172 5.03015 14.3917 4.08106 15.9395 3.5329C17.4872 2.98473 19.1527 2.85714 20.7658 3.16313C21.0792 4.78135 20.953 6.454 20.4003 8.00686C19.8476 9.55971 18.8886 10.936 17.6232 11.9923ZM16.7002 5.82849C16.4036 5.82849 16.1136 5.91647 15.8669 6.08129C15.6202 6.24611 15.428 6.48038 15.3144 6.75447C15.2009 7.02856 15.1712 7.33016 15.2291 7.62113C15.2869 7.9121 15.4298 8.17937 15.6396 8.38915C15.8494 8.59893 16.1166 8.74179 16.4076 8.79967C16.6986 8.85755 17.0002 8.82784 17.2743 8.71431C17.5484 8.60078 17.7826 8.40852 17.9474 8.16185C18.1123 7.91517 18.2002 7.62516 18.2002 7.32849C18.2003 7.1315 18.1615 6.93644 18.0861 6.75444C18.0107 6.57244 17.9002 6.40708 17.7609 6.26778C17.6216 6.12849 17.4563 6.018 17.2743 5.94262C17.0923 5.86725 16.8972 5.82846 16.7002 5.82847L16.7002 5.82849Z" fill="black"/>
</svg>
