<svg width="16" height="17" viewBox="0 0 16 17" fill="none" xmlns="http://www.w3.org/2000/svg">
<path d="M4.66671 4.49998H4.00004V2.49998C4.00004 2.32317 3.9298 2.1536 3.80478 2.02858C3.67975 1.90355 3.51019 1.83331 3.33337 1.83331C3.15656 1.83331 2.98699 1.90355 2.86197 2.02858C2.73695 2.1536 2.66671 2.32317 2.66671 2.49998V4.49998H2.00004C1.82323 4.49998 1.65366 4.57022 1.52864 4.69524C1.40361 4.82027 1.33337 4.98984 1.33337 5.16665C1.33337 5.34346 1.40361 5.51303 1.52864 5.63805C1.65366 5.76307 1.82323 5.83331 2.00004 5.83331H4.66671C4.84352 5.83331 5.01309 5.76307 5.13811 5.63805C5.26314 5.51303 5.33337 5.34346 5.33337 5.16665C5.33337 4.98984 5.26314 4.82027 5.13811 4.69524C5.01309 4.57022 4.84352 4.49998 4.66671 4.49998ZM3.33337 7.16665C3.15656 7.16665 2.98699 7.23688 2.86197 7.36191C2.73695 7.48693 2.66671 7.6565 2.66671 7.83331V14.5C2.66671 14.6768 2.73695 14.8464 2.86197 14.9714C2.98699 15.0964 3.15656 15.1666 3.33337 15.1666C3.51019 15.1666 3.67975 15.0964 3.80478 14.9714C3.9298 14.8464 4.00004 14.6768 4.00004 14.5V7.83331C4.00004 7.6565 3.9298 7.48693 3.80478 7.36191C3.67975 7.23688 3.51019 7.16665 3.33337 7.16665ZM8.00004 12.5C7.82323 12.5 7.65366 12.5702 7.52864 12.6952C7.40361 12.8203 7.33337 12.9898 7.33337 13.1666V14.5C7.33337 14.6768 7.40361 14.8464 7.52864 14.9714C7.65366 15.0964 7.82323 15.1666 8.00004 15.1666C8.17685 15.1666 8.34642 15.0964 8.47144 14.9714C8.59647 14.8464 8.66671 14.6768 8.66671 14.5V13.1666C8.66671 12.9898 8.59647 12.8203 8.47144 12.6952C8.34642 12.5702 8.17685 12.5 8.00004 12.5ZM14 7.16665H13.3334V2.49998C13.3334 2.32317 13.2631 2.1536 13.1381 2.02858C13.0131 1.90355 12.8435 1.83331 12.6667 1.83331C12.4899 1.83331 12.3203 1.90355 12.1953 2.02858C12.0703 2.1536 12 2.32317 12 2.49998V7.16665H11.3334C11.1566 7.16665 10.987 7.23688 10.862 7.36191C10.7369 7.48693 10.6667 7.6565 10.6667 7.83331C10.6667 8.01012 10.7369 8.17969 10.862 8.30472C10.987 8.42974 11.1566 8.49998 11.3334 8.49998H14C14.1769 8.49998 14.3464 8.42974 14.4714 8.30472C14.5965 8.17969 14.6667 8.01012 14.6667 7.83331C14.6667 7.6565 14.5965 7.48693 14.4714 7.36191C14.3464 7.23688 14.1769 7.16665 14 7.16665ZM12.6667 9.83331C12.4899 9.83331 12.3203 9.90355 12.1953 10.0286C12.0703 10.1536 12 10.3232 12 10.5V14.5C12 14.6768 12.0703 14.8464 12.1953 14.9714C12.3203 15.0964 12.4899 15.1666 12.6667 15.1666C12.8435 15.1666 13.0131 15.0964 13.1381 14.9714C13.2631 14.8464 13.3334 14.6768 13.3334 14.5V10.5C13.3334 10.3232 13.2631 10.1536 13.1381 10.0286C13.0131 9.90355 12.8435 9.83331 12.6667 9.83331ZM9.33337 9.83331H8.66671V2.49998C8.66671 2.32317 8.59647 2.1536 8.47144 2.02858C8.34642 1.90355 8.17685 1.83331 8.00004 1.83331C7.82323 1.83331 7.65366 1.90355 7.52864 2.02858C7.40361 2.1536 7.33337 2.32317 7.33337 2.49998V9.83331H6.66671C6.4899 9.83331 6.32033 9.90355 6.1953 10.0286C6.07028 10.1536 6.00004 10.3232 6.00004 10.5C6.00004 10.6768 6.07028 10.8464 6.1953 10.9714C6.32033 11.0964 6.4899 11.1666 6.66671 11.1666H9.33337C9.51018 11.1666 9.67975 11.0964 9.80478 10.9714C9.9298 10.8464 10 10.6768 10 10.5C10 10.3232 9.9298 10.1536 9.80478 10.0286C9.67975 9.90355 9.51018 9.83331 9.33337 9.83331Z" fill="black"/>
</svg>
